<?xml version="1.0" standalone="no"?>
<!DOCTYPE svg PUBLIC "-//W3C//DTD SVG 1.1//EN" "http://www.w3.org/Graphics/SVG/1.1/DTD/svg11.dtd" >
<!--
2013-9-30: Created.
-->
<svg>
<metadata>
Created by iconfont
</metadata>
<defs>

<font id="iconfont" horiz-adv-x="1024" >
  <font-face
    font-family="iconfont"
    font-weight="500"
    font-stretch="normal"
    units-per-em="1024"
    ascent="896"
    descent="-128"
  />
    <missing-glyph />
    
    <glyph glyph-name="sousuo" unicode="&#59147;" d="M863.895552 23.416576 724.955136 164.287232c38.122496 54.04672 60.84608 119.975936 60.84608 191.343616 0 181.94432-145.934336 329.905152-325.383168 329.905152-179.45088 0-325.383168-147.960832-325.383168-329.905152s145.932288-329.904128 325.383168-329.904128c69.95456 0 134.653952 22.7072 187.746304 60.918784l139.101184-141.034496c10.5216-10.661888 32.703488-12.919808 43.278336-2.250752l38.341632 38.873088C879.401984-6.99008 874.471424 12.637952 863.895552 23.416576L863.895552 23.416576zM182.042624 357.167872c0 157.517824 124.053504 285.672448 276.528128 285.672448 152.481792 0 276.528128-128.154624 276.528128-285.672448 0-157.522944-124.04736-285.672448-276.528128-285.672448C306.096128 71.496448 182.042624 199.644928 182.042624 357.167872L182.042624 357.167872z"  horiz-adv-x="1024" />

    
    <glyph glyph-name="fenxiang" unicode="&#58919;" d="M842.835917 54.124967c0-26.02984-21.100574-47.130414-47.130414-47.130414L159.447479 6.994554c-26.02984 0-47.130414 21.100574-47.130414 47.130414L112.317065 713.948711c0 26.02984 21.100574 47.130414 47.130414 47.130414L489.35935 761.079124 489.35935 808.208515 159.447479 808.208515c-52.057633 0-94.260827-42.203194-94.260827-94.260827l0-659.823744c0-52.057633 42.203194-94.260827 94.260827-94.260827l636.258025 0c52.057633 0 94.260827 42.203194 94.260827 94.260827L889.966331 360.472144l-47.130414 0L842.835917 54.124967zM418.664242 596.123188c-104.117312 0-188.520631-84.403319-188.520631-188.520631l0-306.346153 47.130414 0L277.274024 407.601534c0 78.087473 63.302745 141.390217 141.390217 141.390217l541.998221 0L725.010395 831.774233l-70.695109 0 196.375529-235.651045L418.664242 596.123188z"  horiz-adv-x="1024" />

    
    <glyph glyph-name="woyaobanqia" unicode="&#59007;" d="M1017.281418 718.884571 964.08218 316.464762 992.937037 21.284571C996.179703-5.436952 977.16256-29.720381 950.441037-32.975238L114.94237-121.283048C88.220846-124.525714 63.925227-105.508571 60.67037-78.787048L6.215513 478.342095C2.960656 505.063619 21.989989 529.359238 48.711513 532.601905L93.157989 537.307429 134.349608 848.798476C138.835703 875.446857 164.118751 893.403429 190.803703 888.917333L977.089418 775.228952C1003.78656 770.742857 1021.779703 745.508571 1017.281418 718.884571ZM121.488656-85.284571 936.287894-0.548571C949.25856 1.01181 958.511132 12.665905 956.92637 25.478095L947.027703 126.281143 85.368275 34.474667 95.120656-64.902095C96.705418-77.714286 108.505799-86.844952 121.488656-85.284571ZM62.864656 500.187429C49.881799 498.627048 40.641418 486.972952 42.213989 474.148571L82.991132 58.721524 944.65056 150.54019 904.019703 564.528762C902.447132 577.340952 890.646751 586.471619 877.663894 584.911238L62.864656 500.187429ZM961.461227 743.887238 195.984656 852.626286C183.05056 854.77181 170.799132 846.189714 168.629227 833.438476L129.851322 541.184 884.21018 620.909714C910.931703 624.152381 935.227322 605.135238 938.48218 578.413714L948.697799 473.892571 980.941608 716.934095C983.111513 729.673143 974.395322 741.741714 961.461227 743.887238Z"  horiz-adv-x="1024" />

    
    <glyph glyph-name="hongbao" unicode="&#58884;" d="M482.881 460.932c15.553-15.553 42.698-15.553 58.249 0l300.573 300.573c2.378 2.383 3.677 5.327 5.357 8.080-11.353 14.304-28.674 23.648-48.355 23.648h-573.409c-19.681 0-36.999-9.349-48.356-23.648 1.67-2.764 2.973-5.696 5.356-8.080l300.586-300.573zM563.034 439.026c-13.631-13.616-31.757-21.119-51.030-21.119-19.279 0-37.399 7.504-51.030 21.119l-297.152 297.14c-0.133-1.653-0.493-3.223-0.493-4.901v-724.38c0-34.222 27.746-61.97 61.969-61.97h573.409c34.233 0 61.969 27.754 61.969 61.97v724.383c0 1.675-0.37 3.261-0.493 4.901l-297.14-297.14z"  horiz-adv-x="1024" />

    
    <glyph glyph-name="taiyang" unicode="&#59107;" d="M517.12 93.42976c-157.39904 0-285.45024 128.0512-285.45024 285.45024S359.72096 664.33024 517.12 664.33024s285.45024-128.0512 285.45024-285.45024-128.0512-285.45024-285.45024-285.45024z m0 527.36c-133.39136 0-241.90976-108.5184-241.90976-241.90976S383.72864 136.97024 517.12 136.97024s241.90976 108.5184 241.90976 241.90976S650.51136 620.78976 517.12 620.78976zM492.78976 862.72h43.54048v-117.76h-43.54048zM826.84416 734.76096l30.79168-30.79168-81.92-81.92-30.79168 30.79168zM186.91072 739.87584l81.92-81.92-30.79168-30.78656-81.92 81.92zM33.28 408.33024h117.76v-43.54048h-117.76zM862.72 408.33024h128v-43.54048h-128zM249.10848 146.72384l29.12768-32.3584-102.4-92.16512-29.12768 32.3584zM487.66976 33.28h43.54048v-122.88h-43.54048zM770.59584 151.08608l87.04-87.04-30.79168-30.79168-87.04 87.04z"  horiz-adv-x="1024" />

    
    <glyph glyph-name="jianshao" unicode="&#58998;" d="M512-96a480 480 0 1 0 0 960 480 480 0 0 0 0-960z m0 73.8461540625a406.1538459375 406.1538459375 0 1 1 0 812.307691875 406.1538459375 406.1538459375 0 0 1 0-812.307691875zM253.53846124999995 420.9230765625h516.9230775000001v-72.07384593750001H253.53846124999995V420.9230765625z"  horiz-adv-x="1024" />

    
    <glyph glyph-name="kefu" unicode="&#58885;" d="M894.72 540.8C880 739.52 714.24 896 512 896 309.76 896 144 739.52 128.96 540.8 55.68 526.4 0 461.76 0 384l0-64c0-88.32 71.68-160 160-160l96 0 0 160 0 64 0 160L193.6 544c16 161.6 152.32 288 318.4 288 166.048 0 302.4-126.4 318.4-288L768 544l0-160 0-64 0-160 62.4 0c-29.12-131.2-146.24-229.44-286.4-229.44-22.08 0-43.52 2.56-64 7.04l0-59.84c20.8-3.808 42.24-5.76 64-5.76 173.44 0 317.44 125.44 346.56 290.24C894.048 182.39999999999998 896 202.88 896 224l-16 0-42.56 0L832 224l0 106.56 0 42.88L832 480l48 0c44.16 0 80-47.68 80-106.56l0-42.88c0-58.88-35.84-106.56-80-106.56L896 224c0-21.12-1.952-41.6-5.44-61.76C966.4 175.072 1024 240.64 1024 320l0 64C1024 461.76 968.32 526.4 894.72 540.8zM144 480L192 480l0-106.56 0-42.88L192 224 144 224C99.84 224 64 271.67999999999995 64 330.55999999999995l0 42.88C64 432.32 99.84 480 144 480z"  horiz-adv-x="1024" />

    
    <glyph glyph-name="qiandao" unicode="&#59030;" d="M797.209 441.99a42.792 42.792 0 0 1-60.147 4.796L479.392 228.35l-81.865 85.962a42.846 42.846 0 0 1-60.362 1.617 42.253 42.253 0 0 1-1.617-60.039l109.73-115.173a42.63 42.63 0 0 1 58.636-3.125l288.444 244.52a42.361 42.361 0 0 1 4.85 59.876z m-525.58 201.78a43.547 43.547 0 0 1 63.973-2.964 42.63 42.63 0 0 1 12.611 30.45V852.883a42.146 42.146 0 0 1-12.773 30.45 42.846 42.846 0 0 1-20.049 11.102 43.116 43.116 0 0 1-54.11-41.498V671.31a42.577 42.577 0 0 1 10.348-27.594z m554.899-15.305a43.493 43.493 0 0 1 30.827 12.557 42.63 42.63 0 0 1 12.665 30.397V852.936A43.008 43.008 0 0 1 826.528 895.943a43.116 43.116 0 0 1-43.493-43.007v-181.517c0-11.857 4.85-22.636 12.719-30.397a43.978 43.978 0 0 1 30.774-12.557zM1128.715 675.191c-1.94 50.122-26.624 90.381-69.525 113.34-26.57 14.175-52.17 16.169-73.673 16.169h-33.523a42.577 42.577 0 0 1-42.684-42.47 42.577 42.577 0 0 1 42.684-42.468c36.81 0 89.411 4.204 91.46-46.242 0-204.476 0.538-408.952 0.43-613.428v-55.78c0-25.547-19.779-45.757-43.654-45.757H130.964c-24.792 0-43.655 21.773-43.655 45.756V673.197c0 32.498 27.27 49.098 57.129 49.098h33.576a42.577 42.577 0 0 1 42.684 42.469 42.523 42.523 0 0 1-42.684 42.415H144.49c-61.062 0-123.257-35.894-139.048-97.55a151.605 151.605 0 0 1-5.066-36.486v-668.832c0-47.211 26.085-93.076 68.23-116.25 18.54-10.24 39.775-16.061 62.41-16.061h869.267c72.218 0 130.64 61.17 130.64 132.311l-2.156 670.88zM434.606 719.6h262.09a42.577 42.577 0 0 1 42.684 42.47 42.577 42.577 0 0 1-42.685 42.468H434.606a42.577 42.577 0 0 1-42.685-42.469 42.577 42.577 0 0 1 42.685-42.469z"  horiz-adv-x="1131" />

    
    <glyph glyph-name="Asset" unicode="&#58881;" d="M849.031673 282.910982V552.413416a336.758552 336.758552 0 1 1-673.517103 0v-269.502434L40.592652 13.476829h306.442088a168.379276 168.379276 0 0 1 329.93052 0h306.442088z m-337.031673-336.826832a100.713476 100.713476 0 0 0-94.841368 67.392679h189.682736a100.781756 100.781756 0 0 0-94.841368-67.392679z m-370.420751 134.717077l101.054878 202.109755V552.413416a269.365873 269.365873 0 1 0 538.800026 0v-269.502434l101.054878-202.109755H141.579249z"  horiz-adv-x="1024" />

    
    <glyph glyph-name="shezhi" unicode="&#58992;" d="M1163.688417 405.333316L892.75531 874.666258a42.666631 42.666631 0 0 1-37.11997 21.333315H313.769125a42.666631 42.666631 0 0 1-37.119969-21.333315l-270.933107-469.332942a42.666631 42.666631 0 0 1 0-42.666632l270.933107-469.332942a42.666631 42.666631 0 0 1 37.119969-21.333315h541.866215a42.666631 42.666631 0 0 1 37.11997 21.333315l270.933107 469.332942a42.666631 42.666631 0 0 1 0 42.666632zM831.315361-42.666311H338.515771L91.902644 384 338.515771 810.666311h492.79959l246.186461-426.666311zM589.395562 597.333156a213.333156 213.333156 0 1 1 213.333156-213.333156 213.333156 213.333156 0 0 1-213.333156 213.333156z m0-341.333049a127.999893 127.999893 0 1 0 127.999894 127.999893 127.999893 127.999893 0 0 0-127.999894-127.999893z"  horiz-adv-x="1169" />

    
    <glyph glyph-name="left-arrow" unicode="&#58887;" d="M395.64871254 772.99636644l-340.80634872-340.80634873c-26.61697583-26.61697583-26.61697583-69.76305959 0-96.38003542l340.80634872-340.80634873c26.61697583-26.61697583 69.76305959-26.61697583 96.38003543 0s26.61697583 69.76305959 0 96.38003542l-224.45506127 224.45506128h653.39393178c37.65910153 0 68.16126974 30.50216821 68.16126973 68.16126974s-30.50216821 68.16126974-68.16126973 68.16126974h-653.39393178l224.45506127 224.45506128c13.29144761 13.32552824 19.97125203 30.74073266 19.97125203 48.1900177s-6.64572379 34.89857011-19.97125203 48.19001772c-26.61697583 26.61697583-69.76305959 26.61697583-96.38003543 0z"  horiz-adv-x="1024" />

    
    <glyph glyph-name="didian" unicode="&#59011;" d="M422 589.7c24 24.2 56 37.5 90 37.5s66-13.3 90-37.5 37.3-56.4 37.3-90.6c0-9.4-1-18.6-2.9-27.6-3.1-14.3-8.6-27.9-16.4-40.4-1.6-2.5-3.3-5-5-7.4l-0.1-0.1-0.1-0.1c-11.7-16-27-29.3-44.5-38.4-18.1-9.4-37.7-14.2-58.4-14.2-20.7 0-40.4 4.8-58.4 14.2-17.4 9.1-32.8 22.4-44.5 38.4l-0.1 0.2c-1.7 2.4-3.4 4.9-5 7.4-7.8 12.5-13.3 26.1-16.4 40.3-1.9 9-2.9 18.3-2.9 27.6 0.1 34.3 13.3 66.5 37.4 90.7z m410.4-161.1c4.9 22.7 7.5 46.3 7.5 70.5C839.8 681.3 693.1 829 512 829c-181.1 0-327.8-147.7-327.8-329.9 0-24.2 2.6-47.8 7.5-70.5 2.3-10.7 5.1-21.1 8.4-31.4 0.6-1.9 1.2-3.7 1.9-5.6 1-2.9 2-5.7 3.1-8.6 7.8-20.8 17.6-40.7 29.2-59.2 4.1-6.6 8.5-13.1 13.1-19.4l236.4-350.3c13.6-20.1 43-20.1 56.6 0l236.4 350.3c4.6 6.3 9 12.8 13.1 19.4 2.5 4 4.9 8 7.2 12.1 1.2 2 2.3 4.1 3.4 6.2 4.9 9.1 9.4 18.5 13.5 28.2 1.1 2.6 2.1 5.1 3.2 7.7 6.2 16.2 11.4 33.2 15.2 50.6z"  horiz-adv-x="1024" />

    
    <glyph glyph-name="shaixuan" unicode="&#58882;" d="M706.484613-77.742331h-50.157153V482.304a25.128834 25.128834 0 0 0 4.799607 14.750626L895.591656 819.357055H128.446037l224.903067-322.779877a25.040883 25.040883 0 0 0 4.498062-14.323436v-396.306846h-50.207411V474.42611L59.831755 830.14989A25.128834 25.128834 0 0 0 80.41227 869.614724h864.431902a25.128834 25.128834 0 0 0 20.278969-39.829203l-258.638528-355.573006z"  horiz-adv-x="1024" />

    
    <glyph glyph-name="chaojihuiyuan" unicode="&#59169;" d="M511.2 40.493L0 545.262l41.378-546.409h939.644l41.378 546.409-511.2-504.769zM45.495-1.146l470.589 691.882L981.278 4.25l-935.783-5.396zM459.286 787.116c0-31.655 25.661-57.316 57.31-57.316 31.656 0 57.316 25.661 57.316 57.316 0.011 31.652-25.641 57.321-57.291 57.333-31.654 0.01-57.325-25.641-57.335-57.293v-0.04zM983.331-35.07c0-22.874-13.362-41.379-29.813-41.379H73.249c-16.45 0-29.813 18.505-29.813 41.379"  horiz-adv-x="1024" />

    
    <glyph glyph-name="arrow-left" unicode="&#58886;" d="M759.54231453 557.9165782800001l45.00523567-43.4788227-302.82689094-304.35253143-302.82689095 304.35253143 45.00523567 43.47882271 257.82242775-256.29678726z"  horiz-adv-x="1024" />

    
    <glyph glyph-name="pin" unicode="&#58888;" d="M681.59061646 727.45962953v-116.29757495h47.67417378c29.7596487-21.92816174 29.7596487-42.77949445 0-62.55399815h-47.67417379v-152.02873057c5.97150836 1.95787174 14.87982434 7.92938012 26.8228411 17.91452511 13.90088848 7.92938012 26.8228411 4.89467936 38.76585783-8.90831597 7.92938012-13.90088848 4.89467936-26.8228411-8.90831454-38.76585783-7.92938012-7.92938012-23.88603348-17.91452509-47.67417526-29.75964871-4.01363662-4.01363662-6.95044425-5.97150836-8.90831599-5.97150837v-214.58273018c0-110.42395972-81.15377822-167.39802356-131.0795047-140.47728932-5.09046564 2.05576489-11.84512359 10.86618772-10.18093126 19.57871593 3.13259389 15.76086708 9.88725185 34.55643343 27.99756323 44.73736766 34.65432804 19.57871595 53.84146994 67.64446381 53.84146995 89.4747324L622.07131903 301.32887139c-4.01363662-1.95787174-7.92938012-4.01363662-11.94301672-5.97150837-17.91452509-9.985145-35.73115707-17.91452509-53.64568219-23.88603495-19.87239684-7.92938012-32.79434946-1.95787174-38.76585783 17.91452659-4.01363662 19.87239684 3.91574348 33.77328533 23.88603347 41.70266543 27.80177695 9.88725185 54.62461804 21.8302686 80.46852328 35.73115708V548.60805643h-65.58869892c-29.7596487 19.87239684-29.7596487 40.72372957 0 62.55399815h65.58869892V727.45962953c0 15.85876021 9.88725185 24.86496934 29.75964872 26.82284108 17.81663196-1.95787174 27.80177695-10.86618772 29.75964869-26.82284108z m92.41154146-366.61146074h80.46852326V566.52258151h-68.5255065c-29.7596487 17.91452509-29.7596487 36.71009294 0 56.68038441h95.34834759c-15.95665338 23.88603348-31.81541359 47.67417381-47.67417379 71.5602073-11.94301674 15.85876021-9.985145 29.85754183 5.97150835 41.70266544 17.91452509 7.92938012 32.79434946 3.91574348 44.7373662-11.94301674 9.88725185-15.95665338 23.88603348-38.76585782 41.70266545-68.52550653 5.97150836-13.90088848 7.92938012-24.86496934 5.97150836-32.79434947h98.38304985c23.20077853 36.51430517 79.09801334 120.11542381 103.47351402 153.10555958 7.92938012 11.94301674 19.87239684 14.87982434 35.73115707 8.90831598 13.90088848-9.985145 18.89346098-21.92816174 14.87982434-35.73115707-4.01363662-5.97150836-7.92938012-13.90088848-11.94301674-23.88603348-15.95665338-27.80177695-68.72129429-95.44624224-76.65067441-105.43138723h110.32606659c25.84390522-17.91452509 25.84390522-35.73115707 0-53.64568219H1128.76849506v-205.67441272h92.41154001c11.94301674-1.95787174 18.89346098-10.96408087 20.85133271-26.82284255-1.95787174-17.91452509-8.90831599-26.8228411-20.85133271-26.8228411H1128.76849506v-224.86155461c-1.95787174-17.91452509-11.94301674-27.80177695-29.75964873-29.7596487-19.87239684 1.95787174-29.7596487 11.94301674-29.75964867 29.7596487V307.20248514H908.11636336c-1.07682901-109.542917 0.29368091-117.37440397-1.07682902-201.26920204 0-28.87860598-7.43991143-53.64568217-28.38913876-53.15621497-19.87239684 0.4894672-29.85754183 20.0681846-29.36807466 44.247899-0.97893586 119.3322757-1.8599786 110.81553379-0.68525497 210.07962486h-74.49701487c-15.95665338 0-24.86496934 8.90831599-26.82284109 26.82284109 1.8599786 15.95665338 10.76829457 24.96286249 26.72494793 26.92073571z m140.0857138 0H1069.0534099V566.52258151H914.08787172V360.84816879000005zM547.57430415-24.363073490000033C368.13537071 115.42896091 296.67305657 362.90393367 388.69302249 582.87081042c101.41775059 242.58029344 366.21988667 367.19882256 613.10749764 299.55435727L975.66293404 819.87116953c-36.3185189 9.2019969-73.61597365 13.70510073-111.40289563 13.70510071-58.14878749-0.29368091-115.02495818-11.64933583-169.16010756-33.87117846C640.96478002 777.48324913 592.50745809 745.6678355399999 550.90268582 704.94410598c-42.97528222-42.19213411-76.74856755-91.9220728-100.24302697-148.01509541-23.39656629-55.99512798-35.14379525-115.02495818-35.04590211-175.22950906 0.29368091-58.24668062 11.5514427-115.12285132 33.77328534-169.25800217 22.22184263-54.13515084 54.13515084-102.59247276 94.76098726-144.19724507 16.54401519-16.8376961 34.06696624-32.30488225 52.9604272-46.20577072m537.337866 722.45462835c18.79556784-13.99878162 36.51430517-29.36807463 52.96042718-46.20576925 40.72372957-41.6047723 72.53914316-90.06209421 94.76098728-144.19724506 22.22184263-54.13515084 33.47960442-111.01132154 33.77328535-169.25800218 0.29368091-60.30244551-11.45354955-119.3322757-34.85011583-175.32740368C1257.6943417 153.50956374999998 1223.82316177 103.68173045000003 1180.84787953 61.489597799999956c-41.6047723-40.72372957-90.06209421-72.53914316-144.19724504-94.76098726-54.13515084-22.22184263-111.01132154-33.47960442-169.2580007-33.77328532-37.78692196-0.09789315-74.98648357 4.40521068-111.40289559 13.70510218l-26.13758615-62.55399963c246.98550558-67.64446381 511.68974851 56.97406385 613.10749765 299.55435875 92.01996595 219.96687673 20.65554496 467.44184951-158.68549387 607.23388242m-121.3880406 62.45610501M981.73233553 852.9591999m-33.57749756 0a33.57749757 33.57749757 0 1 1 67.15499662 0 33.57749757 33.57749757 0 1 1-67.15499662 0ZM1165.38069485 763.1907866m-33.57749902 0a33.57749757 33.57749757 0 1 1 67.15499658 0 33.57749757 33.57749757 0 1 1-67.15499658 0ZM565.68461703 4.02606529000002m-33.57749906 0a33.57749757 33.57749757 0 1 1 67.15499663 0 33.57749757 33.57749757 0 1 1-67.15499663 0ZM750.60559165-86.52549757999998m-33.57749904 0a33.57749757 33.57749757 0 1 1 67.1549966 0 33.57749757 33.57749757 0 1 1-67.1549966 0Z"  horiz-adv-x="1762" />

    
    <glyph glyph-name="gongyi" unicode="&#58987;" d="M897.024 666.624c-45.056 45.056-105.130667 69.632-168.96 69.632s-123.904-24.576-168.96-69.632l-193.194667-193.194667 72.362667-72.362666 193.194667 193.194666c25.6 25.6 60.074667 39.936 96.597333 39.936s70.997333-13.994667 96.597333-39.936c25.6-25.6 39.594667-60.074667 39.594667-96.597333s-13.994667-70.997333-38.570667-95.573333l-311.637333-295.253334v0.341334l-74.069333-70.656 70.656-74.069334 386.730666 366.592c92.842667 92.842667 92.842667 244.394667-0.341333 337.578667zM612.352 488.448l-236.544-236.544-142.336 149.162667a136.0896 136.0896 0 0 0-39.936 96.597333c0 36.522667 13.994667 70.997333 39.936 96.597333 25.6 25.6 60.074667 39.594667 96.597333 39.594667s70.997333-13.994667 96.597334-39.936l72.362666 72.362667a235.554133 235.554133 0 0 1-168.96 69.973333c-63.829333 0-123.904-24.917333-168.96-69.632a237.226667 237.226667 0 0 1-69.632-168.96c0-63.829333 24.917333-123.904 68.949334-167.936l180.565333-184.32 36.522667-36.522667 307.2 307.2-72.362667 72.362667z"  horiz-adv-x="1024" />

    
    <glyph glyph-name="saoma" unicode="&#58915;" d="M196.906667 462.762667A26.24 26.24 0 0 0 170.666667 489.024v105.024A131.285333 131.285333 0 0 0 301.952 725.333333h105.024a26.24 26.24 0 0 0 0-52.522666h-105.024a78.762667 78.762667 0 0 1-78.762667-78.762667v-105.024a26.24 26.24 0 0 0-26.261333-26.24zM406.997333 42.666667h-105.024A131.285333 131.285333 0 0 0 170.666667 173.952v105.024a26.24 26.24 0 0 0 52.522666 0v-105.024a78.762667 78.762667 0 0 1 78.762667-78.762667h105.024a26.24 26.24 0 0 0 0-52.522666z m315.093334 0h-105.045334a26.24 26.24 0 0 0 0 52.522666h105.024a78.762667 78.762667 0 0 1 78.762667 78.762667v105.024a26.24 26.24 0 0 0 52.522667 0v-105.024A131.285333 131.285333 0 0 0 722.048 42.666667z m105.002666 420.096a26.24 26.24 0 0 0-26.24 26.261333v105.024a78.762667 78.762667 0 0 1-78.784 78.762667h-105.024a26.24 26.24 0 0 0 0 52.522666h105.024A131.285333 131.285333 0 0 0 853.333333 594.048v-105.024a26.24 26.24 0 0 0-26.24-26.24zM298.666667 352V405.333333h426.666666v-53.333333H298.666667z"  horiz-adv-x="1024" />

    
    <glyph glyph-name="lajitong" unicode="&#58901;" d="M779.3 667.8h-113v35.4c0 34.9-28.4 63.3-63.3 63.3H425c-34.9 0-63.3-28.4-63.3-63.3v-35.4h-113c-32.9 0-59.7-26.8-59.7-59.7v-38.5c0-32.9 26.8-59.7 59.7-59.7h1.8v-412.8c0-54.1 44-98.1 98.1-98.1h330.9c54.1 0 98.1 44 98.1 98.1V509.9h1.8c32.9 0 59.7 26.8 59.7 59.7v38.5c-0.1 32.9-26.8 59.7-59.8 59.7z m-374.9 35.4c0 11.4 9.2 20.6 20.6 20.6h178c11.4 0 20.6-9.2 20.6-20.6v-35.4H404.4v35.4z m330.4-606c0-30.5-24.8-55.4-55.4-55.4H348.5c-30.5 0-55.4 24.8-55.4 55.4V509.9h441.7v-412.7z m61.5 472.4c0-9.4-7.6-17-17-17H248.7c-9.4 0-17 7.6-17 17v38.5c0 9.4 7.6 17 17 17h530.7c9.4 0 17-7.6 17-17v-38.5zM377.9 433.7h42.7v-317.5h-42.7zM492.6 433.7h42.7v-317.5h-42.7zM607.4 433.7h42.7v-317.5h-42.7z"  horiz-adv-x="1024" />

    
    <glyph glyph-name="arrow-right" unicode="&#58880;" d="M403.11361401 575.22054555l33.58635559 34.76547325 235.10508581-233.92656484-235.10508581-233.92656486-33.58635559 34.76547328 197.98316735 199.1616883z"  horiz-adv-x="1024" />

    
    <glyph glyph-name="rexiao-" unicode="&#58898;" d="M510.8 829.6c-246.6 0-446.4-199.9-446.4-446.4s199.9-446.4 446.4-446.4c246.6 0 446.4 199.9 446.4 446.4S757.3 829.6 510.8 829.6z m153.6-668.9c-41-38.6-94.1-56.7-148.3-56.7-26.5 0-53.1 4.8-79.6 13.3-76 26.5-129 84.4-142.3 158-25.3 138.7 61.5 202.6 65.1 205 3.6 2.4 8.4 2.4 12.1 1.2 3.6-2.4 6-6 6-10.9 0-33.8 10.9-61.5 22.9-82-20.5 104.9 9.6 171.2 41 209.8 51.9 61.5 103.7 63.9 106.1 63.9 4.8 0 9.6-3.6 12.1-8.4 1.2-4.8 0-9.6-3.6-12.1-1.2-2.4-12.1-20.5-8.4-98.9 2.4-56.7 28.9-96.5 48.2-117 2.4 13.3 6 28.9 13.3 48.2 16.9 49.4 63.9 77.2 65.1 78.4 4.8 2.4 9.6 2.4 14.5-1.2 3.6-3.6 4.8-8.4 3.6-13.3 0 0-13.3-33.8 0-76 2.4-6 4.8-13.3 8.4-21.7 22.9-58.9 72.4-183.2-36.2-279.6z"  horiz-adv-x="1024" />

    
    <glyph glyph-name="liwu" unicode="&#58909;" d="M766.913 677.42a153.807 153.807 0 0 1 20.926 77.12C787.839 824.394 739.763 895.09 647.81 895.09c-42.505 0-78.628-14.771-107.401-44.038-15.463-15.667-27.217-34.458-36.418-54.079-9.015 19.692-20.559 38.341-35.696 54.007C439.671 880.258 403.692 895.09 361.247 895.09c-54.477 0-87.325-24.296-105.305-44.687-22.385-25.39-34.717-59.41-34.717-95.852a153.916 153.916 0 0 1 20.919-77.131H78.774c-43.503 0-78.767-35.264-78.767-78.767v-197.541c0-43.497 35.264-78.768 78.767-78.768v-333.937a115.47 115.47 0 0 1 33.834-81.669 115.476 115.476 0 0 1 81.675-33.829h635.423a115.492 115.492 0 0 1 81.682 33.804 115.475 115.475 0 0 1 33.834 81.67V322.272c43.503 0 78.772 35.265 78.772 78.768V613.887a63.533 63.533 0 0 1-63.532 63.533H766.913zM587.997 804.123c16.004 16.208 35.486 24.11 59.753 24.11 53.996 0 73.172-39.693 73.172-73.694 0-20.444-6.868-40.163-18.869-54.081-13.132-15.264-31.286-23.039-54.177-23.039l-106.704 0.857c4.056 38.93 16.207 94.771 46.766 125.846h0.059zM288.104 754.54c0 20.143 6.358 38.449 18.017 51.687 12.873 14.609 31.417 22.055 55.125 22.055 24.008 0 43.262-7.775 58.863-23.761 30.282-31.105 41.838-87.715 45.444-127.1H361.246c-57.746-0.001-73.142 48.476-73.142 77.119zM112.229 610.538h274.383v-221.384H112.229a45.356 45.356 0 0 0-32.079 13.284 45.377 45.377 0 0 0-13.288 32.081V565.174a45.35 45.35 0 0 0 13.288 32.077 45.346 45.346 0 0 0 32.079 13.287z m33.449-288.266h240.934v-382.494H197.811c-28.779 0-52.121 23.329-52.132 52.109V322.272z m307.814-382.494v670.76h117.03v-670.76h-117.03z m372.681 0H637.39V322.272h240.903v-330.385c-0.012-28.774-23.34-52.102-52.12-52.109z m85.576 449.376H637.39V610.538h274.359a45.354 45.354 0 0 0 32.078-13.287 45.375 45.375 0 0 0 13.288-32.077v-130.655a45.402 45.402 0 0 0-13.288-32.081 45.368 45.368 0 0 0-32.078-13.284z m0 0"  horiz-adv-x="1024" />

    
    <glyph glyph-name="xinaixin" unicode="&#58883;" d="M1066.667 793.6C930.133 921.6 725.333 930.133 588.8 802.133 443.733 930.133 238.933 921.6 102.4 793.6c-136.533-136.533-136.533-349.867 0-486.4l401.067-401.067c42.666-42.666 110.933-42.666 153.6 0L1058.133 307.2c145.067 128 145.067 349.867 8.534 486.4z m-51.2-435.2L614.4-42.667c-17.067-17.066-34.133-17.066-51.2 0L153.6 358.4c-110.933 102.4-110.933 281.6 0 384 102.4 102.4 273.067 102.4 384 8.533l51.2-42.666 51.2 42.666c110.933 102.4 273.067 93.867 384-8.533 93.867-110.933 93.867-281.6-8.533-384z"  horiz-adv-x="1169" />

    
    <glyph glyph-name="xingxing" unicode="&#58896;" d="M562.813885 859.846036l131.124819-264.094106c5.170096-10.424032 15.174931-17.662167 26.744769-19.311008l293.158431-42.366843c29.148164-4.219916 40.801841-39.823714 19.702259-60.252581l-212.141626-205.602153a35.212548 35.212548 0 0 1-10.20046-31.272096l50.080068-290.279945c4.974471-28.840753-25.515124-50.862569-51.589177-37.224693l-262.221693 137.049471a35.631745 35.631745 0 0 1-33.06067 0l-262.221693-137.049471c-26.074053-13.637876-56.535701 8.38394-51.561231 37.224693L250.707749 236.947249a35.128708 35.128708 0 0 1-10.228407 31.272096l-212.141625 205.602153c-21.071636 20.428867-9.445906 56.032665 19.702259 60.252581l293.158431 42.366843c11.597784 1.648842 21.602618 8.886976 26.744768 19.311008l131.152766 264.094106c13.023053 26.269678 50.666943 26.269678 63.717944 0z"  horiz-adv-x="1097" />

    
    <glyph glyph-name="shangwu" unicode="&#58910;" d="M142.6-13.1c-21.3 0-42.5 8.9-58.3 24.4-15.8 15.6-24.9 36.5-24.9 57.4V569.3c0 21.2 9 40.9 25.3 55.4 15.7 14 36.3 21.7 58 21.7h142.2v57.7c0 45.1 39.5 81.9 88.1 81.9h274.7c23.6 0 45.8-8.6 62.4-24.3 16.3-15.3 25.7-36.3 25.7-57.6v-57.7H877.7c21.2 0 42.4-8.9 58.2-24.4 15.9-15.6 25-36.5 25-57.5v-495.7c0-21.7-8.2-42.1-23-57.3-15.4-15.8-36.8-24.6-60.3-24.6h-735zM127.8 69c0-8.9 5.5-14.2 14.8-14.2h735.1c9.2 0 14.7 5.3 14.7 14.1V398.5c-5-2.4-10.3-4.7-16-6.9l-0.2-0.1-287.7-97v-21.9c0-29.3-24.2-53.1-53.9-53.1h-49.1c-14.4 0-28 5.5-38.1 15.5-10.2 10-15.8 23.4-15.8 37.6v17.5L144.2 396.5c-5.8 1.9-11.3 3.9-16.4 6V69z m402 208.7v81.5h-39.3v-81.5h39.3z m-98 81.5V364c0 14.3 5.6 27.7 15.8 37.7 10.1 9.9 23.7 15.4 38.1 15.4h49.1c14.4 0 27.9-5.5 38-15.5 10.1-10 15.6-23.3 15.7-37.5l266.4 94c19.1 7.3 29.1 13.2 33.1 19.8 3.9 6.4 3.9 16.1 3.8 30.8v55.7c0 0.6-0.2 14.2-14.7 14.2H140.3c-7.8-0.9-12.4-6-12.4-14.2v-52.9c0-15.8 0-26.3 4.3-34.4 4.5-8.4 14.5-15.5 33.5-23.9l266.1-94z m235.1 287.2v57.7c0 3.5 0 14.2-19.7 14.2H372.9c-9.5 0-19.6-5.7-19.6-14.2v-57.7h313.6z"  horiz-adv-x="1024" />

    
    <glyph glyph-name="icon-shang" unicode="&#58890;" d="M512.133 496.483l-292.16-292.155c-12.27-12.28-32.186-12.28-44.457 0-12.28099999 12.27-12.281 32.186 0 44.457l314.388 314.388c12.27 12.28 32.186 12.28 44.457 0l314.387-314.388c6.14-6.136 9.211-14.183 9.211-22.228s-3.071-16.092-9.211-22.228c-12.27-12.28-32.186-12.28-44.457 0l-292.159 292.155z"  horiz-adv-x="1024" />

    
    <glyph glyph-name="zhaopai-" unicode="&#59118;" d="M101.376 673.792h924.16v-199.850667c0-220.672-178.858667-399.530667-399.530667-399.530666H1.365333V573.952c0 55.125333 44.714667 99.84 100.010667 99.84zM248.661333 246.613333l-6.314666 27.648c8.021333-0.853333 15.872-1.536 23.381333-1.536 7.509333 0 11.434667 3.584 11.434667 10.752v64.512c-11.434667-4.437333-22.698667-8.704-34.133334-12.970666l-7.850666 29.696c14.165333 3.242667 28.16 7.509333 41.984 12.629333v62.634667h-36.010667v27.306666h36.010667v52.394667h28.16v-52.394667h32.938666v-27.306666h-32.938666v-51.029334c9.898667 4.778667 19.456 9.557333 29.013333 15.018667v-28.842667c-9.557333-5.461333-19.456-10.24-29.013333-15.018666v-83.968c0-19.797333-9.898667-29.696-29.696-29.696h-26.965334z m102.229334 236.202667v26.965333H503.466667c-0.341333-58.709333-3.925333-93.866667-10.410667-105.472-7.168-11.434667-18.944-17.066667-35.328-17.066666-6.656 0-14.165333 0.682667-22.698667 1.536l-6.826666 24.917333c9.557333-0.682667 17.408-1.194667 23.381333-1.877333 10.24 0.682667 16.725333 4.437333 19.797333 12.288 2.389333 7.509333 4.266667 26.965333 4.778667 58.709333h-50.346667c-5.12-23.893333-11.605333-43.178667-19.797333-57.514667-10.410667-16.725333-26.112-32.085333-47.104-45.909333L341.333333 401.92c17.749333 10.752 30.890667 22.698667 39.936 36.010667 7.168 11.605333 12.629333 26.624 16.554667 44.885333h-46.933333z m147.456-238.933333h-28.16V254.293333h-86.016v-10.410666h-28.16v128.512H498.346667v-128.512zM470.186667 281.6v63.317333h-86.016V281.6h86.016zM633.173333 516.608v-77.653333h15.018667v-26.624H581.973333v-11.605334c0-8.704-0.341333-17.066667-0.682666-24.917333h55.125333V247.466667h-27.648v101.546666h-28.842667c-3.584-47.274667-11.946667-83.285333-24.917333-108.544l-20.992 18.261334c13.141333 29.354667 19.797333 76.8 20.138667 141.824v110.08H581.973333v-71.68h23.722667v77.653333H633.173333z m72.192-21.845333c3.925333 8.704 6.826667 17.749333 8.704 26.965333l28.16-3.584c-2.048-8.021333-4.778667-15.872-8.021333-23.381333h65.365333v-131.584h-70.144c-1.194667-2.048-2.048-3.925333-3.072-5.632-8.021333-13.141333-19.797333-23.722667-35.328-31.744h44.885334v28.16h27.648v-28.16h49.493333v-27.306667h-49.493333v-54.272h-27.648v54.272h-89.258667v27.306667h30.208l-9.216 14.336c14.165333 6.656 24.917333 14.165333 32.085333 23.04h-41.130666v131.584h46.762666z m11.093334-53.589334v28.842667h-32.426667v-28.842667h32.426667z m-0.512-23.722666h-31.744v-29.696h27.306666c2.218667 9.045333 3.754667 18.944 4.437334 29.696z m57.856 0h-32.085334c-0.853333-10.752-2.389333-20.650667-4.266666-29.696h36.181333v29.696z m-31.573334 23.722666h31.402667v28.842667h-31.402667v-28.842667z"  horiz-adv-x="1025" />

    
    <glyph glyph-name="shoucang" unicode="&#58889;" d="M758.063 834A265.42 265.42 0 0 1 546.04 723.04 264.633 264.633 0 0 1 334.321 834C184.322 834 62.111 700.39 62.111 536.405a395.243 395.243 0 0 1 78.937-221.958c102.148-160.685 359.43-359.994 370.493-368.244a55.799 55.799 0 0 1 69.561 0c11.063 8.288 267.783 208.16 370.494 368.244a395.055 395.055 0 0 1 78.973 221.958C1030.57 700.39 908.547 834 758.363 834zM881.21 316.097c-94.423-132.523-294.294-283.795-304.232-290.958a51.712 51.712 0 0 0-30.937-11.024 47.324 47.324 0 0 0-30.937 11.024c-9.937 7.2-205.946 160.123-304.232 296.47-31.462 49.687-81.71 111.56-81.71 198.747 0 146.884 81.71 250.12 215.883 250.12 74.549 0 155.697-71.249 200.996-133.047 45.825 61.836 126.448 133.047 200.96 133.047 134.697 0 221.958-103.236 221.958-250.12 0-87.224-55.762-155.173-87.786-204.297z"  horiz-adv-x="1102" />

    
    <glyph glyph-name="shoucang1" unicode="&#58891;" d="M707.584 802.816c-77.312 0-148.992-38.912-196.608-102.912-47.104 64-119.296 102.912-196.608 102.912-139.264 0-252.416-123.904-252.416-275.968 0-90.624 40.448-154.624 73.216-205.824 94.72-148.992 333.312-333.824 343.552-341.504 9.728-7.68 20.992-11.264 32.256-11.264s22.528 3.584 32.256 11.264c10.24 7.68 248.32 193.024 343.552 341.504 32.768 51.2 73.216 115.2 73.216 205.824 0 152.064-113.152 275.968-252.416 275.968z m114.176-480.256c-87.552-122.88-272.896-263.168-282.112-269.824-8.704-6.656-18.944-10.24-28.672-10.24-10.24 0-19.968 3.072-28.672 10.24-9.216 6.656-190.976 148.48-282.112 274.944-29.184 46.08-75.776 103.424-75.776 184.32 0 136.192 75.776 231.936 200.192 231.936 69.12 0 144.384-66.048 186.368-123.392 42.496 57.344 117.248 123.392 186.368 123.392 124.928 0 205.824-95.744 205.824-231.936 0-80.896-51.712-143.872-81.408-189.44zM510.976 620.544S599.04 814.08 719.36 768s204.8-148.48 204.8-184.32 81.92-140.8-243.2-460.8S110.08 468.48 110.08 468.48L122.88 675.84s122.88 114.176 140.8 99.328 140.8-7.168 174.08-40.448 73.216-114.176 73.216-114.176z"  horiz-adv-x="1024" />

    
    <glyph glyph-name="add-fill" unicode="&#59051;" d="M825.82 696.975C741.931 780.456 630.434 826.434 511.806 826.434S281.64 780.456 197.744 696.976 67.6 502.386 67.6 384.234s46.225-229.24 130.143-312.75 195.394-129.458 314.033-129.458 230.155 45.928 314.013 129.457 130.143 194.63 130.143 312.781-46.156 229.201-130.114 312.711z m-91.916-344.472H543.537v-190.377c0-17.524-14.206-31.731-31.73-31.731s-31.731 14.207-31.731 31.73V352.504H289.698c-17.524 0-31.73 14.206-31.73 31.73s14.206 31.731 31.73 31.731h190.377V606.3330000000001c0 17.524 14.206 31.73 31.73 31.73 17.526 0 31.731-14.206 31.731-31.73v-190.377h190.367c17.524 0 31.73-14.207 31.73-31.73s-14.206-31.732-31.73-31.732v0.009z"  horiz-adv-x="1028" />

    
    <glyph glyph-name="qianbao" unicode="&#59464;" d="M1023.957301 505.829569c0 79.868669-64.50931 143.354022-143.354022 143.354022H143.354022c-79.868669 0-143.354022-64.50931-143.354022-143.354022V15.354022c0-79.868669 64.50931-143.354022 143.354022-143.354022h737.249257c79.868669 0 143.354022 64.50931 143.354022 143.354022V133.109112H727.009684c-70.653054 0-127.994663 57.341609-127.994663 127.994662S656.35663 389.098437 727.009684 389.098437h296.947617V505.829569zM727.009684 261.103774m-55.293695 0a55.293694 55.293694 0 1 1 110.587389 0 55.293694 55.293694 0 1 1-110.587389 0ZM834.5252 821.208418C787.423164 895.957301 688.099306 918.484362 613.350423 871.382326L373.744415 719.836645h525.290095l-64.50931 101.371773z"  horiz-adv-x="1024" />

    


  </font>
</defs>
</svg>
